@startuml
!theme spacelab

title File Ingestion Class Diagram
skinparam Padding   0 
enum FieldType {
	STRING
        INT 
	FLOAT 

}

Interface IFieldDefinition {
	{field} name: string
	{field} fieldType: FieldType
}

IFieldDefinition --* FieldType

Interface IJoinTableDefinition {
	{field} tableName: string
	{field} tableIndex: number
	{field} tableAlias: get : string
	{field} joinTable : IJoinTableDefinition
	{field} columns : IJoinTablecolumnDefinition[]

}

Interface IJoinTableColumnDefinition {
	{field} tableDefinition: IJoinTableDefinition
	{field} columnIndex : int
	{field} columnName: string 
	{field} isJoin : boolean 
	{field} isSelected: boolean
}

IJoinTableDefinition *--* IJoinTableColumnDefinition

class JoinProcessor {
	{method} ProccessColumuns(string: tableName, columns:IFieldDefinitions)
}

JoinProcessor --o IFieldDefinition
@enduml
